<svg xmlns="http://www.w3.org/2000/svg" viewBox="0 0 1485 307" role="img" aria-labelledby="title desc">
  <title>GS Industries gs-industries</title>
  <desc>Vector trace of the GS Industries logo.</desc>
  <path d="M 114.0 103.0 L 104.0 119.0 L 80.0 183.0 L 80.0 204.0 L 84.0 213.0 L 96.0 223.0 L 110.0 227.0 L 260.0 227.0 L 294.0 138.0 L 201.0 138.0 L 177.0 169.0 L 239.0 169.0 L 231.0 192.0 L 135.0 191.0 L 130.0 188.0 L 126.0 182.0 L 126.0 171.0 L 141.0 131.0 L 151.0 120.0 L 166.0 114.0 L 285.0 114.0 L 310.0 79.0 L 160.0 79.0 L 134.0 87.0 Z M 512.0 79.0 L 370.0 79.0 L 347.0 87.0 L 332.0 100.0 L 320.0 123.0 L 317.0 134.0 L 317.0 149.0 L 321.0 157.0 L 326.0 162.0 L 344.0 169.0 L 435.0 169.0 L 442.0 173.0 L 441.0 182.0 L 434.0 190.0 L 429.0 192.0 L 308.0 192.0 L 281.0 227.0 L 429.0 227.0 L 455.0 219.0 L 469.0 207.0 L 480.0 188.0 L 486.0 170.0 L 486.0 156.0 L 483.0 149.0 L 477.0 143.0 L 463.0 138.0 L 365.0 137.0 L 359.0 132.0 L 360.0 123.0 L 371.0 114.0 L 486.0 114.0 Z M 776.0 151.0 L 770.0 145.0 L 758.0 142.0 L 697.0 143.0 L 666.0 223.0 L 727.0 224.0 L 735.0 223.0 L 749.0 217.0 L 759.0 208.0 L 767.0 193.0 L 777.0 166.0 L 778.0 157.0 Z M 1168.0 147.0 L 1155.0 142.0 L 1093.0 143.0 L 1061.0 223.0 L 1080.0 223.0 L 1090.0 199.0 L 1112.0 198.0 L 1127.0 224.0 L 1148.0 224.0 L 1136.0 198.0 L 1150.0 194.0 L 1163.0 181.0 L 1171.0 161.0 L 1171.0 152.0 Z M 1311.0 143.0 L 1232.0 143.0 L 1201.0 223.0 L 1279.0 223.0 L 1286.0 207.0 L 1227.0 207.0 L 1227.0 203.0 L 1233.0 191.0 L 1284.0 191.0 L 1290.0 175.0 L 1240.0 175.0 L 1245.0 160.0 L 1300.0 160.0 L 1304.0 158.0 Z M 593.0 142.0 L 561.0 223.0 L 576.0 224.0 L 581.0 222.0 L 601.0 170.0 L 628.0 223.0 L 649.0 223.0 L 679.0 143.0 L 660.0 143.0 L 644.0 188.0 L 639.0 196.0 L 611.0 142.0 Z M 1405.0 143.0 L 1345.0 142.0 L 1328.0 148.0 L 1322.0 154.0 L 1316.0 165.0 L 1313.0 175.0 L 1314.0 184.0 L 1325.0 191.0 L 1366.0 191.0 L 1369.0 194.0 L 1368.0 200.0 L 1364.0 205.0 L 1359.0 207.0 L 1303.0 207.0 L 1293.0 223.0 L 1356.0 224.0 L 1366.0 222.0 L 1375.0 217.0 L 1382.0 209.0 L 1389.0 192.0 L 1388.0 181.0 L 1379.0 175.0 L 1337.0 175.0 L 1334.0 173.0 L 1334.0 167.0 L 1341.0 160.0 L 1395.0 159.0 Z M 984.0 143.0 L 926.0 142.0 L 908.0 148.0 L 900.0 157.0 L 894.0 171.0 L 893.0 181.0 L 896.0 187.0 L 905.0 191.0 L 946.0 191.0 L 949.0 194.0 L 948.0 200.0 L 944.0 205.0 L 939.0 207.0 L 883.0 207.0 L 874.0 223.0 L 936.0 224.0 L 946.0 222.0 L 955.0 217.0 L 962.0 209.0 L 969.0 192.0 L 968.0 181.0 L 959.0 175.0 L 917.0 175.0 L 914.0 172.0 L 915.0 165.0 L 921.0 160.0 L 973.0 160.0 Z M 890.0 143.0 L 870.0 143.0 L 851.0 194.0 L 844.0 203.0 L 835.0 207.0 L 808.0 207.0 L 802.0 203.0 L 801.0 196.0 L 822.0 143.0 L 803.0 143.0 L 780.0 200.0 L 779.0 211.0 L 781.0 216.0 L 786.0 221.0 L 796.0 224.0 L 833.0 224.0 L 846.0 221.0 L 855.0 216.0 L 867.0 201.0 Z M 1080.0 143.0 L 997.0 143.0 L 991.0 159.0 L 1022.0 161.0 L 998.0 223.0 L 1017.0 223.0 L 1043.0 160.0 L 1072.0 160.0 Z M 710.0 160.0 L 751.0 160.0 L 755.0 164.0 L 756.0 170.0 L 754.0 177.0 L 742.0 201.0 L 728.0 207.0 L 692.0 206.0 Z M 573.0 142.0 L 556.0 142.0 L 554.0 144.0 L 524.0 223.0 L 543.0 223.0 L 573.0 147.0 Z M 1213.0 142.0 L 1196.0 142.0 L 1194.0 144.0 L 1164.0 224.0 L 1183.0 223.0 L 1214.0 144.0 Z M 1097.0 181.0 L 1106.0 160.0 L 1147.0 160.0 L 1150.0 164.0 L 1145.0 177.0 L 1137.0 182.0 Z" fill="#000000" fill-rule="evenodd"/>
</svg>
