<svg xmlns="http://www.w3.org/2000/svg" viewBox="0 0 1464 428" role="img" aria-labelledby="title desc">
  <title>GS Industries gs-industries-tagline</title>
  <desc>Vector trace of the GS Industries logo.</desc>
  <path d="M 110.0 104.0 L 100.0 122.0 L 79.0 180.0 L 79.0 203.0 L 82.0 210.0 L 89.0 217.0 L 96.0 221.0 L 113.0 225.0 L 255.0 225.0 L 257.0 223.0 L 289.0 136.0 L 197.0 136.0 L 175.0 167.0 L 235.0 167.0 L 236.0 169.0 L 227.0 190.0 L 133.0 189.0 L 129.0 187.0 L 124.0 181.0 L 124.0 168.0 L 131.0 147.0 L 140.0 127.0 L 149.0 118.0 L 161.0 113.0 L 281.0 112.0 L 305.0 78.0 L 157.0 78.0 L 138.0 83.0 L 128.0 88.0 Z M 504.0 78.0 L 363.0 78.0 L 349.0 82.0 L 341.0 86.0 L 333.0 92.0 L 325.0 101.0 L 313.0 127.0 L 312.0 147.0 L 315.0 154.0 L 322.0 161.0 L 339.0 167.0 L 427.0 167.0 L 435.0 171.0 L 435.0 179.0 L 429.0 187.0 L 421.0 190.0 L 303.0 190.0 L 277.0 223.0 L 277.0 225.0 L 419.0 225.0 L 435.0 222.0 L 447.0 217.0 L 465.0 201.0 L 471.0 190.0 L 479.0 165.0 L 479.0 157.0 L 475.0 147.0 L 470.0 142.0 L 464.0 139.0 L 452.0 136.0 L 362.0 136.0 L 354.0 131.0 L 354.0 122.0 L 360.0 115.0 L 370.0 112.0 L 479.0 112.0 Z M 687.0 141.0 L 656.0 221.0 L 722.0 221.0 L 732.0 218.0 L 743.0 211.0 L 751.0 201.0 L 766.0 163.0 L 765.0 150.0 L 759.0 144.0 L 750.0 141.0 Z M 1079.0 141.0 L 1047.0 221.0 L 1065.0 221.0 L 1074.0 198.0 L 1086.0 196.0 L 1097.0 196.0 L 1111.0 221.0 L 1133.0 221.0 L 1121.0 196.0 L 1134.0 192.0 L 1141.0 187.0 L 1146.0 181.0 L 1155.0 160.0 L 1154.0 148.0 L 1150.0 144.0 L 1142.0 141.0 Z M 1216.0 141.0 L 1185.0 221.0 L 1261.0 221.0 L 1268.0 205.0 L 1210.0 204.0 L 1216.0 189.0 L 1266.0 189.0 L 1273.0 173.0 L 1223.0 173.0 L 1222.0 172.0 L 1227.0 159.0 L 1285.0 158.0 L 1293.0 141.0 Z M 584.0 141.0 L 553.0 221.0 L 572.0 220.0 L 592.0 167.0 L 606.0 193.0 L 618.0 220.0 L 639.0 221.0 L 669.0 141.0 L 650.0 142.0 L 633.0 190.0 L 630.0 195.0 L 603.0 141.0 Z M 1385.0 141.0 L 1323.0 141.0 L 1314.0 144.0 L 1308.0 148.0 L 1302.0 155.0 L 1298.0 163.0 L 1295.0 173.0 L 1296.0 182.0 L 1301.0 187.0 L 1307.0 189.0 L 1347.0 189.0 L 1350.0 191.0 L 1350.0 196.0 L 1345.0 203.0 L 1339.0 205.0 L 1285.0 205.0 L 1276.0 221.0 L 1343.0 221.0 L 1353.0 217.0 L 1360.0 211.0 L 1368.0 196.0 L 1370.0 190.0 L 1370.0 182.0 L 1368.0 178.0 L 1359.0 173.0 L 1319.0 173.0 L 1315.0 170.0 L 1316.0 165.0 L 1323.0 158.0 L 1375.0 158.0 L 1385.0 143.0 Z M 970.0 141.0 L 909.0 141.0 L 895.0 147.0 L 887.0 156.0 L 881.0 171.0 L 881.0 181.0 L 883.0 184.0 L 892.0 189.0 L 933.0 189.0 L 936.0 191.0 L 935.0 198.0 L 931.0 203.0 L 926.0 205.0 L 871.0 205.0 L 861.0 221.0 L 928.0 221.0 L 940.0 216.0 L 948.0 208.0 L 954.0 195.0 L 956.0 183.0 L 953.0 177.0 L 945.0 173.0 L 905.0 173.0 L 901.0 170.0 L 902.0 165.0 L 909.0 158.0 L 960.0 158.0 L 969.0 145.0 Z M 791.0 141.0 L 769.0 198.0 L 769.0 213.0 L 775.0 219.0 L 781.0 221.0 L 827.0 221.0 L 836.0 218.0 L 844.0 213.0 L 852.0 204.0 L 857.0 194.0 L 877.0 141.0 L 858.0 141.0 L 838.0 194.0 L 830.0 202.0 L 822.0 205.0 L 797.0 205.0 L 792.0 203.0 L 790.0 200.0 L 790.0 192.0 L 810.0 142.0 Z M 1066.0 141.0 L 984.0 141.0 L 978.0 158.0 L 1008.0 159.0 L 984.0 221.0 L 1003.0 221.0 L 1028.0 158.0 L 1058.0 158.0 Z M 289.0 273.0 L 290.0 275.0 L 1145.0 274.0 L 1144.0 272.0 Z M 700.0 158.0 L 739.0 158.0 L 744.0 162.0 L 745.0 168.0 L 742.0 178.0 L 735.0 194.0 L 731.0 199.0 L 724.0 203.0 L 716.0 205.0 L 681.0 204.0 L 698.0 160.0 Z M 1198.0 141.0 L 1178.0 142.0 L 1148.0 221.0 L 1167.0 221.0 Z M 565.0 141.0 L 546.0 142.0 L 516.0 221.0 L 535.0 221.0 Z M 1082.0 179.0 L 1091.0 158.0 L 1131.0 158.0 L 1134.0 161.0 L 1133.0 170.0 L 1130.0 175.0 L 1125.0 179.0 L 1116.0 181.0 Z M 705.0 322.0 L 698.0 328.0 L 696.0 332.0 L 697.0 341.0 L 704.0 348.0 L 716.0 348.0 L 723.0 341.0 L 723.0 330.0 L 715.0 322.0 Z M 907.0 322.0 L 906.0 348.0 L 920.0 348.0 L 926.0 345.0 L 930.0 336.0 L 927.0 327.0 L 919.0 322.0 Z M 529.0 322.0 L 528.0 348.0 L 532.0 348.0 L 533.0 339.0 L 538.0 339.0 L 545.0 348.0 L 549.0 348.0 L 543.0 340.0 L 548.0 334.0 L 548.0 327.0 L 542.0 322.0 Z M 1095.0 322.0 L 1095.0 348.0 L 1098.0 348.0 L 1099.0 339.0 L 1105.0 339.0 L 1112.0 348.0 L 1116.0 348.0 L 1110.0 339.0 L 1115.0 334.0 L 1115.0 327.0 L 1113.0 324.0 L 1109.0 322.0 Z M 707.0 325.0 L 715.0 326.0 L 720.0 332.0 L 719.0 341.0 L 712.0 346.0 L 705.0 345.0 L 700.0 339.0 L 700.0 331.0 L 703.0 327.0 Z M 779.0 322.0 L 767.0 348.0 L 771.0 348.0 L 774.0 342.0 L 787.0 342.0 L 790.0 348.0 L 794.0 348.0 L 783.0 323.0 Z M 911.0 325.0 L 920.0 326.0 L 925.0 330.0 L 926.0 338.0 L 919.0 345.0 L 910.0 344.0 Z M 659.0 322.0 L 659.0 348.0 L 662.0 348.0 L 663.0 329.0 L 679.0 349.0 L 681.0 349.0 L 682.0 323.0 L 678.0 322.0 L 677.0 342.0 L 662.0 322.0 Z M 620.0 322.0 L 620.0 348.0 L 623.0 348.0 L 624.0 329.0 L 638.0 348.0 L 642.0 349.0 L 642.0 322.0 L 639.0 322.0 L 638.0 342.0 L 624.0 323.0 Z M 327.0 322.0 L 327.0 348.0 L 330.0 348.0 L 331.0 329.0 L 343.0 345.0 L 348.0 349.0 L 349.0 322.0 L 346.0 322.0 L 345.0 342.0 L 331.0 323.0 Z M 424.0 322.0 L 424.0 348.0 L 427.0 348.0 L 428.0 329.0 L 442.0 348.0 L 446.0 348.0 L 446.0 322.0 L 443.0 322.0 L 442.0 342.0 L 428.0 323.0 Z M 368.0 325.0 L 364.0 331.0 L 365.0 342.0 L 370.0 347.0 L 376.0 349.0 L 388.0 346.0 L 388.0 335.0 L 378.0 335.0 L 379.0 338.0 L 385.0 339.0 L 385.0 343.0 L 380.0 346.0 L 373.0 345.0 L 368.0 340.0 L 367.0 336.0 L 368.0 331.0 L 372.0 326.0 L 381.0 325.0 L 386.0 328.0 L 387.0 325.0 L 382.0 322.0 L 373.0 322.0 Z M 837.0 322.0 L 836.0 348.0 L 855.0 348.0 L 854.0 345.0 L 839.0 344.0 L 841.0 337.0 L 853.0 336.0 L 853.0 334.0 L 841.0 334.0 L 839.0 326.0 L 854.0 325.0 L 855.0 323.0 Z M 294.0 322.0 L 294.0 348.0 L 312.0 348.0 L 311.0 345.0 L 297.0 345.0 L 298.0 337.0 L 310.0 337.0 L 310.0 334.0 L 298.0 334.0 L 297.0 326.0 L 311.0 325.0 L 311.0 322.0 Z M 462.0 322.0 L 462.0 348.0 L 481.0 348.0 L 480.0 345.0 L 465.0 344.0 L 466.0 337.0 L 479.0 337.0 L 479.0 334.0 L 467.0 334.0 L 465.0 332.0 L 465.0 326.0 L 480.0 325.0 L 481.0 323.0 Z M 944.0 322.0 L 944.0 348.0 L 962.0 348.0 L 962.0 345.0 L 947.0 344.0 L 948.0 337.0 L 961.0 336.0 L 961.0 334.0 L 948.0 334.0 L 947.0 326.0 L 962.0 325.0 L 962.0 322.0 Z M 496.0 322.0 L 496.0 348.0 L 514.0 348.0 L 513.0 345.0 L 499.0 345.0 L 500.0 337.0 L 513.0 336.0 L 513.0 334.0 L 500.0 334.0 L 499.0 326.0 L 514.0 325.0 L 514.0 322.0 Z M 1063.0 322.0 L 1063.0 348.0 L 1081.0 348.0 L 1080.0 345.0 L 1066.0 344.0 L 1067.0 337.0 L 1079.0 337.0 L 1079.0 334.0 L 1067.0 334.0 L 1066.0 326.0 L 1081.0 325.0 L 1081.0 322.0 Z M 1024.0 322.0 L 1034.0 347.0 L 1036.0 349.0 L 1039.0 348.0 L 1048.0 325.0 L 1050.0 323.0 L 1046.0 322.0 L 1037.0 343.0 L 1028.0 322.0 Z M 734.0 322.0 L 744.0 347.0 L 746.0 349.0 L 749.0 348.0 L 760.0 323.0 L 756.0 322.0 L 747.0 344.0 L 738.0 323.0 Z M 1098.0 326.0 L 1110.0 326.0 L 1112.0 328.0 L 1111.0 334.0 L 1108.0 336.0 L 1099.0 336.0 Z M 802.0 322.0 L 801.0 325.0 L 810.0 326.0 L 811.0 348.0 L 814.0 348.0 L 814.0 326.0 L 823.0 325.0 L 823.0 322.0 Z M 532.0 326.0 L 543.0 326.0 L 545.0 329.0 L 544.0 334.0 L 540.0 336.0 L 533.0 336.0 Z M 977.0 322.0 L 977.0 348.0 L 994.0 348.0 L 993.0 345.0 L 980.0 344.0 L 980.0 322.0 Z M 1008.0 322.0 L 1007.0 347.0 L 1011.0 348.0 L 1011.0 322.0 Z M 404.0 322.0 L 404.0 348.0 L 407.0 348.0 L 408.0 323.0 Z M 600.0 322.0 L 600.0 348.0 L 603.0 348.0 L 603.0 322.0 Z M 781.0 327.0 L 785.0 338.0 L 777.0 339.0 L 776.0 336.0 Z M 1130.0 344.0 L 1129.0 348.0 L 1132.0 349.0 L 1134.0 346.0 Z M 871.0 344.0 L 868.0 345.0 L 870.0 349.0 L 873.0 346.0 Z M 563.0 344.0 L 562.0 347.0 L 565.0 349.0 L 566.0 345.0 Z" fill="#000000" fill-rule="evenodd"/>
</svg>
