<svg xmlns="http://www.w3.org/2000/svg" viewBox="0 0 847 359" role="img" aria-labelledby="title desc">
  <title>GS Industries gs-mark</title>
  <desc>Vector trace of the GS Industries logo.</desc>
  <path d="M 75.0 92.0 L 63.0 113.0 L 53.0 144.0 L 45.0 200.0 L 45.0 227.0 L 49.0 249.0 L 58.0 270.0 L 65.0 280.0 L 79.0 293.0 L 106.0 307.0 L 134.0 313.0 L 398.0 312.0 L 420.0 154.0 L 250.0 154.0 L 247.0 157.0 L 217.0 208.0 L 334.0 208.0 L 333.0 232.0 L 330.0 253.0 L 328.0 255.0 L 172.0 255.0 L 152.0 251.0 L 141.0 245.0 L 127.0 228.0 L 123.0 213.0 L 125.0 173.0 L 129.0 153.0 L 136.0 136.0 L 150.0 119.0 L 167.0 109.0 L 184.0 105.0 L 397.0 105.0 L 435.0 45.0 L 160.0 45.0 L 133.0 51.0 L 112.0 60.0 L 94.0 72.0 Z M 482.0 78.0 L 471.0 97.0 L 466.0 111.0 L 463.0 128.0 L 463.0 150.0 L 467.0 166.0 L 472.0 176.0 L 488.0 193.0 L 512.0 204.0 L 535.0 208.0 L 696.0 208.0 L 707.0 212.0 L 712.0 217.0 L 715.0 224.0 L 715.0 234.0 L 711.0 244.0 L 706.0 249.0 L 690.0 255.0 L 472.0 255.0 L 437.0 313.0 L 711.0 313.0 L 726.0 310.0 L 748.0 301.0 L 762.0 291.0 L 774.0 278.0 L 784.0 260.0 L 788.0 246.0 L 790.0 208.0 L 786.0 192.0 L 776.0 175.0 L 763.0 164.0 L 745.0 156.0 L 724.0 152.0 L 552.0 151.0 L 539.0 143.0 L 536.0 138.0 L 535.0 127.0 L 538.0 117.0 L 547.0 108.0 L 555.0 105.0 L 762.0 105.0 L 801.0 45.0 L 544.0 45.0 L 526.0 49.0 L 505.0 58.0 Z" fill="#FFFFFF" fill-rule="evenodd"/>
</svg>
